<svg width="1200" height="628" viewBox="0 0 1200 628" fill="none" xmlns="http://www.w3.org/2000/svg">
<rect width="1200" height="628" fill="#FFFDF8"/>
<path d="M445.052 357.242C425.335 328.329 424.653 286.865 396.095 243.18C367.536 199.495 310.407 199.495 308.361 200.129L308.399 208.988L308.335 200.776C306.289 200.129 249.172 200.129 220.614 243.827C192.056 287.525 191.374 328.977 171.657 357.889C151.927 386.801 145.956 412.819 152.61 423.176C155.788 428.125 165.956 427.377 175.737 421.805C192.21 412.426 187.294 419.229 187.294 424.381C187.294 441.858 191.914 485.428 228.761 507.272C263.445 527.834 291.295 528.632 313.2 528.073C332.814 527.578 358.038 525.155 389.299 506.625C426.133 484.781 429.428 441.211 429.428 423.734C429.428 418.594 425.528 410.357 440.985 421.158C449.878 427.377 460.92 427.478 464.112 422.528C470.752 412.185 464.768 386.166 445.052 357.242Z" fill="#394167"/>
<path d="M304.716 518.678C304.769 518.678 304.804 518.659 304.857 518.609C304.097 518.659 303.991 518.678 304.716 518.678Z" fill="white"/>
<path d="M365.338 252.85C350.105 237.426 332.462 250.532 321.237 261.333C312.942 269.306 311.217 270.593 306.879 270.656C302.363 270.72 299.941 269.306 291.646 261.333C280.421 250.532 262.778 237.426 247.545 252.85C232.324 268.275 207.477 295.277 211.485 382.434C215.493 469.592 245.388 517.404 266.469 525.531C285.849 532.983 327.223 535.925 354.037 523.697C370.665 516.12 397.402 469.617 401.41 382.447C405.431 295.277 380.571 268.275 365.338 252.85Z" fill="white"/>
<path d="M311.904 518.617C311.94 518.651 311.975 518.67 312.01 518.67C312.647 518.67 312.558 518.651 311.904 518.617Z" fill="white"/>
<path d="M321.911 284.098C317.332 285.527 311.937 287.563 307.345 287.563C302.754 287.563 297.346 285.527 292.78 284.098C280.446 280.228 250.663 277.737 230.97 283.718L226.314 292.924C226.314 292.924 233.801 293.329 234.988 297.06C236.174 300.79 238.916 316.218 243.929 322.25C250.153 329.736 262.296 330.014 271.364 329.648C283.583 329.155 287.652 325.475 294.999 315.27C300.534 307.581 301.351 307.353 303.812 305.254C305.432 303.876 309.552 304.141 310.904 305.254C313.098 307.062 314.386 307.467 319.718 315.27C326.248 324.83 331.133 329.155 343.352 329.648C352.421 330.014 364.551 329.736 370.788 322.25C375.8 316.218 378.555 300.803 379.729 297.06C380.915 293.317 386.578 292.659 386.578 292.659L382.407 283.718C362.701 277.737 334.258 280.228 321.911 284.098Z" fill="#394167"/>
<path d="M321.025 333.617C313.639 321.275 310.202 318.299 307.109 318.299C304.017 318.299 299.8 320.306 292.222 333.276C289.654 337.686 286.792 344.321 287.469 347.57C288.146 350.819 303.8 356.813 308.247 356.444C312.796 356.062 324.641 350.546 325.369 347.843C326.175 344.894 323.747 338.177 321.025 333.617Z" fill="#FF9200"/>
<path d="M365.987 450.659C357.673 437.551 357.386 418.752 345.346 398.937C333.307 379.122 309.215 379.122 308.352 379.417L308.365 383.439L308.34 379.713C307.477 379.417 283.398 379.417 271.346 399.232C259.307 419.047 259.019 437.847 250.705 450.954C242.392 464.061 239.866 475.858 242.679 480.561C244.017 482.81 248.305 482.464 252.431 479.945C259.382 475.691 257.307 478.774 257.307 481.112C257.307 489.041 259.257 508.792 274.797 518.699C289.424 528.03 301.164 528.389 310.403 528.133C318.679 527.901 329.306 526.809 342.496 518.404C358.036 508.496 359.411 488.746 359.411 480.817C359.411 478.493 357.76 474.753 364.287 479.649C368.037 482.464 372.7 482.514 374.038 480.265C376.826 475.575 374.313 463.779 365.987 450.659Z" fill="#394167"/>
<path d="M308.439 522.478C308.457 522.478 308.475 522.459 308.494 522.443C308.168 522.459 308.114 522.478 308.439 522.478Z" fill="white"/>
<path d="M333.088 401.613C326.694 394.687 319.281 400.578 314.568 405.421C311.083 409.012 310.359 409.587 308.543 409.612C306.653 409.638 305.622 409.012 302.149 405.421C297.436 400.565 290.024 394.674 283.63 401.613C277.236 408.539 266.792 420.678 268.473 459.844C270.155 499.011 287.164 510.191 296.013 513.832C304.149 517.18 313.746 518.497 325.012 513.004C331.995 509.592 346.563 498.997 348.244 459.832C349.925 420.678 339.494 408.552 333.088 401.613Z" fill="white"/>
<path d="M308.237 522.449C308.256 522.465 308.274 522.465 308.292 522.465C308.567 522.485 308.531 522.465 308.237 522.449Z" fill="white"/>
<path d="M315.371 419.342C313.297 420.006 310.85 420.944 308.776 420.944C306.702 420.944 304.256 420.006 302.182 419.342C296.598 417.557 283.116 416.411 274.208 419.172L272.107 423.419C272.107 423.419 275.498 423.602 276.03 425.334C276.562 427.054 277.811 434.18 280.072 436.955C282.89 440.407 288.381 440.537 292.49 440.368C298.02 440.134 299.855 438.44 303.179 433.737C305.678 430.194 306.051 430.089 307.168 429.112C307.899 428.474 309.76 428.591 310.372 429.112C311.369 429.946 311.941 430.128 314.361 433.737C317.312 438.153 319.519 440.147 325.05 440.368C329.158 440.537 334.65 440.407 337.468 436.955C339.742 434.18 340.978 427.054 341.51 425.334C342.042 423.615 344.608 423.302 344.608 423.302L342.72 419.172C333.825 416.411 320.955 417.557 315.371 419.342Z" fill="#394167"/>
<path d="M312.73 437.374C310.515 433.669 309.482 432.781 308.555 432.781C307.628 432.781 306.366 433.385 304.089 437.273C303.321 438.599 302.456 440.584 302.668 441.563C302.871 442.542 307.566 444.335 308.899 444.225C310.267 444.115 313.816 442.46 314.036 441.645C314.275 440.758 313.551 438.736 312.73 437.374Z" fill="#FF9200"/>
<path d="M579.971 264.873C600.597 264.873 616.462 273.031 627.568 289.346C638.851 305.66 644.492 325.433 644.492 348.664C644.492 366.575 641.671 383.51 636.03 399.47C630.389 415.253 621.575 428.553 609.587 439.37C597.6 450.01 583.585 455.33 567.543 455.33C564.37 455.33 552.382 454.089 531.581 451.606C534.049 413.479 535.283 381.914 535.283 356.91C535.283 331.906 534.489 304.242 532.903 273.918C550.003 267.888 565.692 264.873 579.971 264.873ZM574.154 422.878C582.263 422.878 590.284 415.696 598.217 401.332C606.326 386.791 610.38 371.185 610.38 354.516C610.38 337.669 607.472 323.837 601.654 313.02C596.013 302.202 589.226 296.794 581.293 296.794C577.062 296.794 573.096 297.503 569.394 298.922C570.099 325.167 570.452 347.245 570.452 365.156C570.452 382.889 569.923 401.421 568.865 420.75C570.099 422.169 571.862 422.878 574.154 422.878ZM743.113 448.68L737.031 411.706L697.631 413.302L687.583 463.31L650.563 460.118L697.895 267.267L746.815 271.524L781.455 451.872L743.113 448.68ZM719.843 302.114L703.184 384.84L732.8 383.776L719.843 302.114ZM849.049 264.873C869.675 264.873 885.541 273.031 896.647 289.346C907.929 305.66 913.57 325.433 913.57 348.664C913.57 366.575 910.749 383.51 905.108 399.47C899.467 415.253 890.653 428.553 878.665 439.37C866.678 450.01 852.663 455.33 836.621 455.33C833.448 455.33 821.461 454.089 800.659 451.606C803.127 413.479 804.361 381.914 804.361 356.91C804.361 331.906 803.568 304.242 801.981 273.918C819.081 267.888 834.77 264.873 849.049 264.873ZM843.232 422.878C851.341 422.878 859.362 415.696 867.295 401.332C875.404 386.791 879.459 371.185 879.459 354.516C879.459 337.669 876.55 323.837 870.733 313.02C865.091 302.202 858.304 296.794 850.372 296.794C846.141 296.794 842.174 297.503 838.472 298.922C839.177 325.167 839.53 347.245 839.53 365.156C839.53 382.889 839.001 401.421 837.943 420.75C839.177 422.169 840.94 422.878 843.232 422.878ZM1012.19 448.68L1006.11 411.706L966.706 413.302L956.658 463.31L919.638 460.118L966.971 267.267L1015.89 271.524L1050.53 451.872L1012.19 448.68ZM988.918 302.114L972.259 384.84L1001.88 383.776L988.918 302.114Z" fill="#394167"/>
</svg>
